# xmcd CD database file
#
# Track frame offsets:
#	150
#	14039
#	25916
#	37353
#	49705
#	59720
#	73725
#	88033
#	101063
#	115268
#
# Disc length: 1717 seconds
#
# Revision: 0
# Processed by: cddbd v1.5.2PL0 Copyright (c) Steve Scherf et al.
# Submitted via: CDex 2.18
#
DISCID=9506b30a
DTITLE=Billie Holiday - High Priestess of Jazz
DYEAR=2006
DGENRE=Jazz
TTITLE0=The Man I Love
TTITLE1=He's Funny That Way
TTITLE2=Carelessly
TTITLE3=God Bless The Child
TTITLE4=Trav'lin' All Alone
TTITLE5=Strange Fruit
TTITLE6=Fine and Mellow
TTITLE7=You Go To My Head
TTITLE8=Gloomy Sunday
TTITLE9=They Can't Take That Away From Me
EXTD=YEAR: 2006
EXTT0=
EXTT1=
EXTT2=
EXTT3=
EXTT4=
EXTT5=
EXTT6=
EXTT7=
EXTT8=
EXTT9=
PLAYORDER=
